<svg id="Capa_1" data-name="Capa 1" xmlns="http://www.w3.org/2000/svg" viewBox="0 0 297 297"><defs><style>.cls-1{fill:#fff;}.cls-2{fill:#ff1d0b;}</style></defs><title>ace</title><rect class="cls-1" x="41.5" width="214" height="297" rx="20" ry="20"/><polygon class="cls-2" points="217.11 264 214.88 257 203.37 257 201.15 264 194.5 264 205.78 231 212.51 231 223.75 264 217.11 264"/><polygon class="cls-1" points="209.07 239 205 252 213.26 252 209.21 239 209.07 239"/><polygon class="cls-2" points="80.65 66 74 66 85.28 33 92.01 33 103.25 66 96.61 66 94.38 59 82.88 59 80.65 66"/><polygon class="cls-1" points="88.57 41 84.5 54 92.76 54 88.71 41 88.57 41"/><path class="cls-2" d="M148.5,117.35c7.7-12.78,20.78-19.16,35.15-13.46,15.37,6.1,18.62,20.93,15.37,37-4.37,21.58-35.81,43.46-46.73,50.48a6.88,6.88,0,0,1-7.45,0c-10.94-7-42.48-28.9-46.85-50.49-3.25-16.06,0-30.89,15.37-37,14.37-5.7,27.45.68,35.15,13.46"/></svg>