<svg id="Capa_1" data-name="Capa 1" xmlns="http://www.w3.org/2000/svg" viewBox="0 0 622 350"><defs><style>.cls-1{fill:#1956be;}.cls-2{fill:#fff;stroke:#1956be;stroke-miterlimit:10;stroke-width:10px;}</style></defs><title>airplane</title><path class="cls-1" d="M592.57,28.38c-14.82-5.3-51.79-9.62-67.26-10.35-6.31-.3-4.7,8.71,1.36,9.36a4.28,4.28,0,0,0,1,3,20,20,0,0,0-4.7,1.23c-1.82.82-2.95,2.56-4.73,3.31s-3.93.76-5.76,1.41l-.34.13-.13,0c-6.66.68-19.91,1.58-22.54,8.9a5.07,5.07,0,0,0-1.6,1.64,8.45,8.45,0,0,0-1.41,4.29c-1.72,5.49-4,12.54,1.31,15.81,2.51,1.54,5.22.31,6.84-1.79,3.87-5,13.11-6.75,18.77-8.85q10.12-3.75,20.3-7.34A57.66,57.66,0,0,0,541.49,46c2.95-1.56,5.31-3.55,8.55-4.55,7.35-2.28,14.94-4,22.38-5.92C577.39,34.2,597.06,30,592.57,28.38Z"/><path class="cls-2" d="M617,65.94c0,105.87-510.37,222.73-549,222.73-21.67,0-46.25-5-46.25-25,0-6.67,7.7-16.32,21.22-27.95h0L7.11,172.11a16.36,16.36,0,0,1,8.18-23.21l6.16-2.46a40.9,40.9,0,0,1,34.34,1.82l65,34.43c25.32-15,54-30.75,84.33-46.23L78.4,54.22a16.36,16.36,0,0,1,.2-27.58L89,20.11a73.62,73.62,0,0,1,57.94-8.85L357.76,66.9C423.5,40.81,482.94,23,518.12,23h6.7a2.28,2.28,0,0,1,.84,4.41L489.88,41a11.6,11.6,0,0,0-7.43,10l-.87,12.22a6.42,6.42,0,0,0,9.08,6.29l73.82-33.93a39.09,39.09,0,0,1,40.13,4.15C612.57,45.88,617,54.3,617,65.94ZM360.49,248.7,439.14,338a16.36,16.36,0,0,0,19.18,4l10.53-4.9a49.08,49.08,0,0,0,28.06-50.21l-9.85-84.19a8.18,8.18,0,0,0-10.84-6.7L363.91,235.57a8.18,8.18,0,0,0-3.42,13.13Z"/></svg>