<svg id="Layer_1" data-name="Layer 1" xmlns="http://www.w3.org/2000/svg" viewBox="0 0 512 512"><defs><style>.cls-1{fill:#2e2b2b;}.cls-2{fill:#ff1d0b;}.cls-3{fill:#aaf746;}</style></defs><title>apple1</title><path class="cls-1" d="M256.66,173.3H254.8a14.06,14.06,0,0,1-14.06-13.55c-1.47-41.63-9.37-92-21-118.77a14.08,14.08,0,0,1,5.11-17.33l1.53-1a14.1,14.1,0,0,1,20.76,6.22c14.53,33.74,22,89.48,23.56,129.84a14.07,14.07,0,0,1-13.54,14.58Z"/><path class="cls-2" d="M319.11,512c-31.29,0-43.85-5.67-53-9.82-4.51-2-6.37-2.88-10.08-2.88s-5.57.84-10.08,2.88c-9.18,4.14-21.74,9.82-53,9.82-28.55,0-55.08-9.71-78.86-28.86-21-16.85-38.75-40.14-52.88-69.29C42,374.32,31.47,327.61,31.47,282.31c0-48,12.2-89.92,34.37-118,19.58-24.85,56.46-51.5,121-37.36,20.51,4.5,38.06,14.52,52.16,22.57l.18.1a34,34,0,0,0,33.73,0l.18-.1c14.11-8.05,31.66-18.07,52.16-22.57,64.49-14.14,101.37,12.51,121,37.36,22.17,28.12,34.37,70,34.37,118,0,45.29-10.56,92-29.74,131.54-14.22,29.15-32,52.44-52.88,69.29C374.19,502.29,347.65,512,319.11,512Z"/><path class="cls-3" d="M274.89,132.54c-2.69,0-4.37-.09-4.72-.11h0a15,15,0,0,1-14.06-14.06h0c-.13-2.11-2.85-52.12,27.64-82.61S364.25,8,366.36,8.11h0a15,15,0,0,1,14.06,14.06h0c.13,2.11,2.85,52.12-27.64,82.61C327.37,130.2,288.38,132.54,274.89,132.54Z"/></svg>