<svg id="Capa_1" data-name="Capa 1" xmlns="http://www.w3.org/2000/svg" viewBox="0 0 488.84 488.84"><defs><style>.cls-1{fill:#2e2b2b;}.cls-2{fill:#ff960a;}</style></defs><title>ball</title><g id="_14" data-name=" 14"><circle class="cls-1" cx="244.67" cy="244.6" r="243.73"/><path class="cls-2" d="M264.32,39.49c5.53-7.33,4.64-22.87,3.85-36.58,0-.59-.06-1.17-.1-1.76C260.33.41,252.48,0,244.54,0a243.76,243.76,0,0,0-86.41,15.77A569.15,569.15,0,0,1,240,64.26C251.2,54.57,259.69,45.63,264.32,39.49Z"/><path class="cls-2" d="M388.16,179a161.88,161.88,0,0,0-30.9,6.11C398.8,257.59,415,349.21,419,415.59A243.52,243.52,0,0,0,488.72,254.2C460.36,219.34,422.8,175,388.16,179Z"/><path class="cls-2" d="M141.23,116.36c29.18-6.07,56.6-20.76,78.47-36.27C174.09,48.68,136,32.38,128.48,29.27A245.36,245.36,0,0,0,21.27,145c28.63-11.41,59.64-17.21,90.1-22.87C121.22,120.29,131.41,118.4,141.23,116.36Z"/><path class="cls-2" d="M310.17,123.46q3.91,3.93,7.78,8a259.87,259.87,0,0,1,26,32.49c11.54-4.36,25.12-7.45,41.38-9.28,38.31-4.33,72.37,26,101.6,59.42A243.4,243.4,0,0,0,426.66,81.46a347,347,0,0,0-57.43,11.73C356.06,97.11,335.09,107.8,310.17,123.46Z"/><path class="cls-2" d="M278,249.69c10-34,21.64-58.43,44.14-74.32a228.55,228.55,0,0,0-21.89-27.05c-3.64-3.82-7.32-7.52-11-11.15C199,198.61,75.33,311.47,64.09,409.26A243.87,243.87,0,0,0,210.8,486.47c21.05-41.92,40.87-127.12,52.65-177.8C269.1,284.32,274,263.31,278,249.69Z"/><path class="cls-2" d="M175.67,195.84a871.74,871.74,0,0,1,95.11-75.91c-10.13-9-20.3-17.23-30.27-24.81-25.25,19-58.31,37.67-94.29,45.16-10.08,2.1-20.4,4-30.37,5.87C77.4,153.29,40.5,160.2,9.47,177.51A244.17,244.17,0,0,0,44,384C61.84,313.23,123.18,244.21,175.67,195.84Z"/><path class="cls-2" d="M291.83,106C320.91,87.44,346,74.62,362.24,69.76a361.1,361.1,0,0,1,42.5-9.86,243.5,243.5,0,0,0-112-55.13c.94,17.07,1.35,35.81-8.92,49.43C279,60.67,270.7,69.54,260,79.16,270.48,87.35,281.17,96.28,291.83,106Z"/><path class="cls-2" d="M301.45,256.61c-3.82,12.93-8.63,33.63-14.2,57.59C270.81,385,255.07,448.26,236.7,488.64c2.61.08,5.22.2,7.85.2a243.29,243.29,0,0,0,150.88-52.21c-1.64-69.46-18.29-167.71-60.24-240.64C318.92,208.08,310.17,227.1,301.45,256.61Z"/></g></svg>