<svg id="Слой_1" data-name="Слой 1" xmlns="http://www.w3.org/2000/svg" viewBox="0 0 512 512"><defs><style>.cls-1{fill:#ffcf47;}.cls-2{fill:#2e2b2b;}</style></defs><title>banana2</title><path class="cls-1" d="M491.28,257.29l-12.21.77a91.08,91.08,0,0,0-33.58,8.73C394.06,291.36,327,314,254.73,314,98.37,314,59.51,168.64,52.29,132.68A33.48,33.48,0,0,0,45.37,118L28.16,97a8.3,8.3,0,0,0-12.29-.6L2.45,109.87a8.25,8.25,0,0,0-1,10.55c10.2,14.72,35.88,55.62,29.19,85.73C16,272.27,51.4,418.81,254.73,418.81c80,0,187.09-20.71,254.46-131.87a19.75,19.75,0,0,0,2.82-10.2A19.48,19.48,0,0,0,491.28,257.29Z"/><path class="cls-2" d="M49.18,123.89a33,33,0,0,0-3.8-5.9L28.16,97a8.3,8.3,0,0,0-12.29-.61L2.45,109.87a8.25,8.25,0,0,0-1,10.55,236,236,0,0,1,17.09,28.89Z"/><path class="cls-2" d="M491.28,257.29l-6.46.41,19.71,36.69c1.57-2.44,3.13-4.91,4.67-7.45a19.79,19.79,0,0,0,2.81-10.2A19.48,19.48,0,0,0,491.28,257.29Z"/></svg>