<svg id="Слой_1" data-name="Слой 1" xmlns="http://www.w3.org/2000/svg" viewBox="0 0 512 512"><defs><style>.cls-1{fill:#ffc022;}.cls-2{fill:#2e2b2b;}.cls-3{fill:#ffcf47;}</style></defs><title>banana1</title><path class="cls-1" d="M510.91,131.35a18.72,18.72,0,0,0-24.5-12.08l-11,4.13A87.65,87.65,0,0,0,447,140.84c-40.41,37-95.7,76.62-162.18,96.87C141,281.5,64.55,158.68,47.84,127.64L30.9,163.26c9.16,11.64,16.61,24.9,17.62,38,5,64.92,78.64,189.74,265.61,132.8,73.56-22.41,166.23-71.45,197.05-192.53A19,19,0,0,0,510.91,131.35Z"/><path class="cls-2" d="M486.41,119.27l-5.83,2.19L509,149.68c.77-2.69,1.5-5.4,2.21-8.16a19,19,0,0,0-.27-10.17A18.72,18.72,0,0,0,486.41,119.27Z"/><path class="cls-3" d="M491.28,257.29l-12.21.77a91.08,91.08,0,0,0-33.58,8.73C394.06,291.36,327,314,254.73,314,98.37,314,59.51,168.64,52.29,132.68A33.48,33.48,0,0,0,45.37,118L28.16,97a8.3,8.3,0,0,0-12.29-.6L2.45,109.87a8.25,8.25,0,0,0-1,10.55c10.2,14.72,35.88,55.62,29.19,85.73C16,272.27,51.4,418.81,254.73,418.81c80,0,187.09-20.71,254.46-131.87a19.75,19.75,0,0,0,2.82-10.2A19.48,19.48,0,0,0,491.28,257.29Z"/><path class="cls-2" d="M49.18,123.89a33,33,0,0,0-3.8-5.9L28.16,97a8.3,8.3,0,0,0-12.29-.61L2.45,109.87a8.25,8.25,0,0,0-1,10.55,236,236,0,0,1,17.09,28.89Z"/><path class="cls-2" d="M491.28,257.29l-6.46.41,19.71,36.69c1.57-2.44,3.13-4.91,4.67-7.45a19.79,19.79,0,0,0,2.81-10.2A19.48,19.48,0,0,0,491.28,257.29Z"/></svg>