<svg id="Слой_1" data-name="Слой 1" xmlns="http://www.w3.org/2000/svg" viewBox="0 0 200 187"><defs><style>.cls-1{fill:#ff960a;}</style></defs><title>beard</title><path class="cls-1" d="M195.24,4.6C192-.74,189.13,14,187.91,17.91s-11,10.67-22.39,18.32a24.88,24.88,0,0,0-8.86,10.11,9.11,9.11,0,0,1-11.81,4.32C134.23,46.14,116.49,39.83,100,39.83c-17.44,0-34.63,6-44.59,10.16A9.09,9.09,0,0,1,44,46.31a29.69,29.69,0,0,0-9.52-10.08C23.07,28.59,13.3,21.87,12.08,17.91S8-.74,4.75,4.6C.72,11.2-2,41.53,2.92,54.18S3.84,90.59,7.5,106,21,140.45,30,153.1s26.11,20,34.77,25.68c11.63,7.56,24.24,8.71,35.23,8.71s23.61-1.15,35.23-8.71c8.66-5.63,25.82-13,34.78-25.68s18.83-31.67,22.49-47.09-.31-39.18,4.58-51.83S199.27,11.2,195.24,4.6ZM60.31,78.79S69.47,58.23,100,58.23s39.68,20.55,39.68,20.55c-4,5.64-21.95,1.57-41.35,1.55C83.76,80.32,67.62,86.6,60.31,78.79Z"/></svg>