<svg id="Layer_1" data-name="Layer 1" xmlns="http://www.w3.org/2000/svg" viewBox="0 0 511.99 228"><defs><style>.cls-1{fill:#fff;}</style></defs><title>boat</title><path class="cls-1" d="M503.47,118H8.53a8.53,8.53,0,0,0-6.9,13.55l68.27,93.87a8.5,8.5,0,0,0,6.89,3.52H460.86a8.29,8.29,0,0,0,3.7-.87C506.33,207.2,512,165.08,512,126.6A8.56,8.56,0,0,0,503.47,118ZM110.93,147.86a4.27,4.27,0,0,1-4.27,4.27H98.13a4.27,4.27,0,0,1-4.27-4.27v-8.53a4.27,4.27,0,0,1,4.27-4.27h8.53a4.27,4.27,0,0,1,4.27,4.27Zm34.13,0a4.27,4.27,0,0,1-4.27,4.27h-8.53a4.27,4.27,0,0,1-4.27-4.27v-8.53a4.27,4.27,0,0,1,4.27-4.27h8.53a4.27,4.27,0,0,1,4.27,4.27Zm34.13,0a4.27,4.27,0,0,1-4.27,4.27H166.4a4.27,4.27,0,0,1-4.27-4.27v-8.53a4.27,4.27,0,0,1,4.27-4.27h8.53a4.27,4.27,0,0,1,4.27,4.27Zm34.13,0a4.27,4.27,0,0,1-4.27,4.27h-8.53a4.27,4.27,0,0,1-4.27-4.27v-8.53a4.27,4.27,0,0,1,4.27-4.27h8.53a4.27,4.27,0,0,1,4.27,4.27Zm34.13,0a4.27,4.27,0,0,1-4.27,4.27h-8.53a4.27,4.27,0,0,1-4.27-4.27v-8.53a4.27,4.27,0,0,1,4.27-4.27h8.53a4.27,4.27,0,0,1,4.27,4.27Zm34.13,0a4.27,4.27,0,0,1-4.27,4.27H268.8a4.27,4.27,0,0,1-4.27-4.27v-8.53a4.27,4.27,0,0,1,4.27-4.27h8.53a4.27,4.27,0,0,1,4.27,4.27v8.53Zm34.13,0a4.27,4.27,0,0,1-4.27,4.27h-8.53a4.27,4.27,0,0,1-4.27-4.27v-8.53a4.27,4.27,0,0,1,4.27-4.27h8.53a4.27,4.27,0,0,1,4.27,4.27Zm34.13,0a4.27,4.27,0,0,1-4.27,4.27h-8.53a4.27,4.27,0,0,1-4.27-4.27v-8.53a4.27,4.27,0,0,1,4.27-4.27h8.53a4.27,4.27,0,0,1,4.27,4.27Zm34.13,0a4.27,4.27,0,0,1-4.27,4.27H371.2a4.27,4.27,0,0,1-4.27-4.27v-8.53a4.27,4.27,0,0,1,4.27-4.27h8.53a4.27,4.27,0,0,1,4.27,4.27Zm34.13,0a4.27,4.27,0,0,1-4.27,4.27h-8.53a4.27,4.27,0,0,1-4.27-4.27v-8.53a4.27,4.27,0,0,1,4.27-4.27h8.53a4.27,4.27,0,0,1,4.27,4.27Zm34.13,0a4.27,4.27,0,0,1-4.27,4.27h-8.53a4.27,4.27,0,0,1-4.27-4.27v-8.53a4.27,4.27,0,0,1,4.27-4.27H448a4.27,4.27,0,0,1,4.27,4.27Z"/><path class="cls-1" d="M439.45,72.61l-5.59-20.73c-1.27-4.73-4.43-7.85-7.95-7.85H392.53V13.22c0-3.4-1.91-6.16-4.27-6.16h-8.53c-2.36,0-4.27,2.76-4.27,6.16V44H332.8V13.22c0-3.4-1.91-6.16-4.27-6.16H320c-2.36,0-4.27,2.76-4.27,6.16V44H273.07V13.22c0-3.4-1.91-6.16-4.27-6.16h-8.53c-2.36,0-4.27,2.76-4.27,6.16V44H220.6c-3.52,0-6.67,3.12-8,7.85L207.06,72.6c-1.08,4,1,8.4,4,8.4H435.47C438.48,81,440.54,76.64,439.45,72.61Z"/><path class="cls-1" d="M475.84,114.74l-5.05-28.17c-1.2-6.74-4.43-11.23-8-11.23H131.33c-3.61,0-6.83,4.49-8,11.23l-5.05,28.16c-1,5.51,1.07,11.28,4,11.28H471.82C474.76,126,476.83,120.23,475.84,114.74Z"/></svg>