<svg id="Слой_1" data-name="Слой 1" xmlns="http://www.w3.org/2000/svg" viewBox="0 0 512 512"><defs><style>.cls-1{fill:#2e2b2b;}.cls-2{fill:#c6c6c6;}.cls-3{fill:#fff;}</style></defs><title>bomb</title><path class="cls-1" d="M320,183.12V149.33A21.33,21.33,0,0,0,298.67,128H213.33A21.33,21.33,0,0,0,192,149.33v33.79a170.67,170.67,0,1,0,128,0Zm0,222.21A21.33,21.33,0,1,1,341.33,384,21.33,21.33,0,0,1,320,405.33Z"/><path class="cls-2" d="M402.25,97.13c-2.36,4.72-6.37,9.54-18.25,9.54-9,0-14.83-8.37-26.07-27.47-14.37-24.42-34.05-57.87-80.6-57.87-25.39,0-38.93,12.16-45.85,22.35C223.24,55.86,220.54,71.35,220.77,87a19.9,19.9,0,0,0,19.87,19.66h2.84a19.87,19.87,0,0,0,19.86-20.41c-.21-8,.77-14.65,3.48-18.64.73-1.08,2.45-3.61,10.52-3.61,21.12,0,30,13.31,43.83,36.84,12.7,21.61,28.54,48.5,62.84,48.5,31.45,0,49.48-17.17,58-36.23C447.77,100,438,85.33,423.72,85.33h-3.43a19.93,19.93,0,0,0-18,11.68Z"/><circle class="cls-3" cx="321" cy="386" r="24"/></svg>