<svg id="Layer_1" data-name="Layer 1" xmlns="http://www.w3.org/2000/svg" viewBox="0 0 512 235.16"><defs><style>.cls-1{fill:#fff;}</style></defs><title>car</title><path class="cls-1" d="M503.47,149.83V98.63a8.53,8.53,0,0,0-5.84-8.1L449.49,74.48c-18.13-30.71-43.06-59.94-98.14-69.59L351,4.84C249.31-9.23,172.94,13.72,123.9,73.06c-36.5.53-73.75,8.16-95.67,22.19-11.35,7.27-18.08,19.93-18.71,33.39l-1,21.19A8.54,8.54,0,0,0,0,158.36v34.13A8.54,8.54,0,0,0,8.53,201H42.67a8.59,8.59,0,0,0,8.53-8.63s0-.08,0-.14a59.73,59.73,0,0,1,119.46.23c-.61,5.18,3.47,8.53,8.53,8.53H332.8a8.59,8.59,0,0,0,8.53-8.63s0-.08,0-.14a59.73,59.73,0,0,1,119.46.23c-.61,5.18,3.47,8.53,8.53,8.53h34.13a8.54,8.54,0,0,0,8.53-8.53V158.36A8.53,8.53,0,0,0,503.47,149.83ZM273.07,68.76A4.27,4.27,0,0,1,268.8,73H157.52a4.29,4.29,0,0,1-2.82-7.5C184.3,38.54,222,23.1,268.36,19a4.35,4.35,0,0,1,4.7,4.3Zm102.52,0A4.27,4.27,0,0,1,371.32,73H294.4a4.27,4.27,0,0,1-4.27-4.27V22.17a4.28,4.28,0,0,1,4.24-4.31,392.41,392.41,0,0,1,54.16,3.87,143.75,143.75,0,0,1,24.63,6.51,4.27,4.27,0,0,1,2.77,4.08ZM420.12,73h-23.2a4.27,4.27,0,0,1-4.27-4.31l.22-23.12a4.3,4.3,0,0,1,6.89-3.35A112.83,112.83,0,0,1,423.5,66.12,4.29,4.29,0,0,1,420.12,73Z"/><path class="cls-1" d="M401.07,149.83a42.67,42.67,0,1,0,42.67,42.67A42.72,42.72,0,0,0,401.07,149.83Z"/><path class="cls-1" d="M110.93,149.83a42.67,42.67,0,1,0,42.67,42.67A42.72,42.72,0,0,0,110.93,149.83Z"/></svg>