<svg id="Слой_1" data-name="Слой 1" xmlns="http://www.w3.org/2000/svg" viewBox="0 0 297 297"><defs><style>.cls-1{fill:#2e2b2b;}</style></defs><title>comb</title><path class="cls-1" d="M214.46,40V19.8c0-10.93-7.68-19.8-18.62-19.8H97.79A15.29,15.29,0,0,0,82.46,15V282a15.29,15.29,0,0,0,15.33,15h98.05c10.93,0,18.62-8.86,18.62-19.8V257h-83V239h74.83a8,8,0,1,0,0-16H131.46V206h74.83a8,8,0,1,0,0-16H131.46V173h74.83a8,8,0,1,0,0-16H131.46V140h74.83a8,8,0,1,0,0-16H131.46V107h74.83a8,8,0,1,0,0-16H131.46V74h74.83a8,8,0,1,0,0-16H131.46V40h83Z"/></svg>