<svg id="Capa_1" data-name="Capa 1" xmlns="http://www.w3.org/2000/svg" viewBox="0 0 114.04 493.17"><defs><style>.cls-1{fill:#fff;}</style></defs><title>flatware</title><g id="cutlery"><path class="cls-1" d="M106.28,0a8.18,8.18,0,0,0-8.17,8.19h0v100.4a8.43,8.43,0,0,1-7.72,8.52,8.22,8.22,0,0,1-8.7-7.7q0-.25,0-.5V8.19A8.18,8.18,0,0,0,73.55,0h-.1a8.17,8.17,0,0,0-8.17,8.17V108.59a8.44,8.44,0,0,1-7.73,8.52,8.22,8.22,0,0,1-8.7-7.7V8.19A8.17,8.17,0,0,0,40.7,0h-.15a8.17,8.17,0,0,0-8.2,8.14h0V108.59a8.43,8.43,0,0,1-7.72,8.52,8.22,8.22,0,0,1-8.7-7.7V8.19A8.18,8.18,0,0,0,7.76,0h0A7.74,7.74,0,0,0,0,7.72H0V116.4c0,33.21,11.13,51.24,27.74,59.69a36.56,36.56,0,0,1,19.83,36.14L23.62,456.36a33.55,33.55,0,1,0,66.78,0L66.5,212.23a36.59,36.59,0,0,1,19.79-36.14C102.9,167.64,114,149.61,114,116.4V7.74A7.74,7.74,0,0,0,106.3,0h0Z"/></g></svg>