<svg id="Слой_1" data-name="Слой 1" xmlns="http://www.w3.org/2000/svg" viewBox="0 0 512 512"><defs><style>.cls-1{fill:#2e2b2b;}</style></defs><title>helm</title><path class="cls-1" d="M497,241H460.45a204.16,204.16,0,0,0-49.34-118.89l25.2-25.21A15,15,0,0,0,415.1,75.69l-25.2,25.2A204.16,204.16,0,0,0,271,51.55V15a15,15,0,0,0-30,0V51.55a204.13,204.13,0,0,0-118.89,49.34L96.9,75.69A15,15,0,0,0,75.69,96.9l25.2,25.2A204.16,204.16,0,0,0,51.55,241H15a15,15,0,0,0,0,30H51.55a204.16,204.16,0,0,0,49.34,118.89L75.69,415.1A15,15,0,1,0,96.9,436.31l25.21-25.2A204.13,204.13,0,0,0,241,460.45V497a15,15,0,0,0,30,0V460.45a204.13,204.13,0,0,0,118.89-49.34l25.2,25.2a15,15,0,0,0,21.21-21.21l-25.2-25.21A204.13,204.13,0,0,0,460.45,271H497a15,15,0,0,0,0-30ZM361.43,340.21,304,282.79A54.57,54.57,0,0,0,308.9,271h81.26A134.34,134.34,0,0,1,361.43,340.21ZM150.57,171.79,208,229.21A54.57,54.57,0,0,0,203.1,241H121.84A134.34,134.34,0,0,1,150.57,171.79ZM390.16,241H308.9A54.57,54.57,0,0,0,304,229.21l57.42-57.42A134.34,134.34,0,0,1,390.16,241ZM282.79,208A54.57,54.57,0,0,0,271,203.1V121.84a134.34,134.34,0,0,1,69.21,28.73ZM241,203.1A54.57,54.57,0,0,0,229.21,208l-57.42-57.42A134.34,134.34,0,0,1,241,121.84ZM121.84,271H203.1A54.57,54.57,0,0,0,208,282.79l-57.42,57.42A134.34,134.34,0,0,1,121.84,271Zm107.37,33A54.57,54.57,0,0,0,241,308.9v81.26a134.34,134.34,0,0,1-69.21-28.73ZM271,308.9A54.57,54.57,0,0,0,282.79,304l57.42,57.42A134.34,134.34,0,0,1,271,390.16Z"/></svg>