<svg id="Capa_1" data-name="Capa 1" xmlns="http://www.w3.org/2000/svg" viewBox="0 0 512 512"><defs><style>.cls-1{fill:#ff8c2e;}.cls-2{fill:#ffecbb;}</style></defs><title>orange1</title><path class="cls-1" d="M256,0C115.3,0,0,115.3,0,256S115.3,512,256,512,512,396.7,512,256,396.7,0,256,0Z"/><path class="cls-2" d="M256,31C131.8,31,31,131.8,31,256S131.8,481,256,481,481,380.2,481,256,380.2,31,256,31Z"/><path class="cls-1" d="M419.8,187.3a87.22,87.22,0,0,0-96-96,87.14,87.14,0,0,0-135.6,0,87.22,87.22,0,0,0-96,96,86.82,86.82,0,0,0,0,135.3,87.22,87.22,0,0,0,96,96,87.14,87.14,0,0,0,135.6,0,87.22,87.22,0,0,0,96-96,86.82,86.82,0,0,0,0-135.3Z"/><polygon class="cls-2" points="432.26 346.38 278.19 280.35 290 252.78 444.07 318.81 432.26 346.38"/><polygon class="cls-2" points="319.35 452.65 253.94 289.12 281.8 277.99 347.22 441.52 319.35 452.65"/><polygon class="cls-2" points="190.56 446.69 163 434.89 230.38 277.67 257.95 289.47 190.56 446.69"/><polygon class="cls-2" points="80.1 341.88 68.97 314.02 222.35 252.66 233.49 280.52 80.1 341.88"/><polygon class="cls-2" points="222.75 257.44 65.22 189.92 77.03 162.35 234.56 229.87 222.75 257.44"/><polygon class="cls-2" points="230.92 233.71 164.49 67.61 192.35 56.47 258.78 222.57 230.92 233.71"/><polygon class="cls-2" points="280.93 234.04 253.36 222.24 322.65 60.3 350.22 72.1 280.93 234.04"/><polygon class="cls-2" points="289.25 257.44 277.44 229.87 433.01 163.19 444.82 190.76 289.25 257.44"/><path class="cls-2" d="M256,211a45,45,0,1,0,45,45A44.94,44.94,0,0,0,256,211Z"/></svg>