<svg id="Capa_1" data-name="Capa 1" xmlns="http://www.w3.org/2000/svg" viewBox="0 0 512 512"><defs><style>.cls-1{fill:#2e2b2b;}.cls-2{fill:#aaf746;}.cls-3{fill:#42e95f;}</style></defs><title>pear</title><path class="cls-1" d="M255.51,100.78h-.06a15,15,0,0,1-14.85-13c-3.84-27.18-19.07-45.24-29.34-54.59a15,15,0,0,1-2.72-18.92h0A15,15,0,0,1,231.35,11c14,12.76,34,36.78,39,72.75A15,15,0,0,1,255.51,100.78Z"/><path class="cls-2" d="M383.45,444.7a162.34,162.34,0,0,1-125.28,60h-4.34a162.34,162.34,0,0,1-125.28-60C98.18,407.3,86.7,359.17,97.07,312.65c6.63-29.76,21.85-54,36.57-77.44,13.32-21.23,25.9-41.27,32-64.67,11.36-43.39,35.55-64.85,53.86-75.2a74.48,74.48,0,0,1,73,0c18.3,10.35,42.49,31.81,53.85,75.2,6.12,23.4,18.71,43.44,32,64.67,14.72,23.43,29.94,47.67,36.57,77.44C425.3,359.17,413.82,407.3,383.45,444.7Z"/><path class="cls-3" d="M362,66.15a7.14,7.14,0,0,1-1.16,11.37c-38.41,23.08-76,44.71-101,14.25a42.2,42.2,0,0,1,5.9-59.43C297.13,6.68,331.17,37.79,362,66.15Z"/></svg>