<svg id="_1" data-name=" 1" xmlns="http://www.w3.org/2000/svg" viewBox="0 0 564.48 1431.1"><defs><style>.cls-1{fill:none;}.cls-2{fill:#fff;}.cls-3{fill:#2e2b2b;}.cls-4{fill:#ffc388;}.cls-5{fill:#ffcf47;}.cls-6{fill:#ff960a;}.cls-7{fill:#ea965c;}.cls-8{fill:#f1f2f2;}.cls-9{fill:#c6c6c6;}</style></defs><title>pilot</title><line class="cls-1" x1="241.89" y1="370.2" x2="321.71" y2="369.1"/><polygon class="cls-2" points="372.18 730.97 190.33 731.07 170.87 884.32 385.72 884.32 372.18 730.97"/><path class="cls-3" d="M197.87,1415.55h-32.5A17.87,17.87,0,0,1,148,1393.41l12.76-51.92a17.87,17.87,0,0,1,17.36-13.61h7a17.87,17.87,0,0,1,17.36,13.61l12.76,51.92a17.87,17.87,0,0,1-17.37,22.14Z"/><path class="cls-2" d="M220.83,730.8l-30.5.26a23,23,0,0,0-22.65,19.77c-13.67,98.59-13.22,358.58-9.38,587.25a23,23,0,0,0,17.75,22h0a23.09,23.09,0,0,0,28.4-22.63c-1.26-200.77,14.66-358.52,39.52-581a23.11,23.11,0,0,0-23.14-25.65Z"/><path class="cls-3" d="M369.88,1415.55h32.5a17.87,17.87,0,0,0,17.36-22.14L407,1341.49a17.87,17.87,0,0,0-17.36-13.61h-7a17.87,17.87,0,0,0-17.36,13.61l-12.76,51.92a17.87,17.87,0,0,0,17.36,22.14Z"/><path class="cls-2" d="M345.93,730.3l30.5.26a23,23,0,0,1,22.65,19.77c13.67,98.59,13.22,358.58,9.38,587.25a23,23,0,0,1-17.75,22h0a23.09,23.09,0,0,1-28.4-22.63c1.26-200.77-14.66-358.52-39.52-581a23.11,23.11,0,0,1,23.14-25.65Z"/><polygon class="cls-4" points="313.43 312.98 241.47 311.73 240.67 379.38 315.83 379.38 313.43 312.98"/><rect class="cls-2" x="232.96" y="375.13" width="103.04" height="151.2"/><path class="cls-3" d="M287.74,378.36l-1.54-1.11a11.61,11.61,0,0,0-13.3-.19l-.38.26a11.61,11.61,0,0,0-1.47,18l1.36,1.29a11.61,11.61,0,0,0,15.16.71l.56-.44a11.61,11.61,0,0,0-.39-18.52Z"/><path class="cls-3" d="M274.64,400.65l-8.89,55.09a5.8,5.8,0,0,0,.39,3.21l9,20.89a5.8,5.8,0,0,0,10.57.19l9.41-20a5.8,5.8,0,0,0,.47-3.43l-9.47-56a5.8,5.8,0,0,0-6.69-4.75h-.16A5.8,5.8,0,0,0,274.64,400.65Z"/><path class="cls-4" d="M473.25,699c-23.17,4.93-96.91,18.49-71.5,55,10.34,14.86,27.86,9.18,34.92-6.87S473.25,699,473.25,699Z"/><path class="cls-4" d="M404,747.17c.54-7-.22-13.53-3.58-13.84s-6.52,5.09-7.06,12.06,2.12,10.92,5.48,11.23S403.45,754.15,404,747.17Z"/><path class="cls-4" d="M409.72,757c.55-7-.22-13.53-3.57-13.84s-6.51,5.1-7.07,12,2.14,10.94,5.49,11.25S409.15,764,409.72,757Z"/><path class="cls-4" d="M418.42,762.64c.54-7-.22-13.53-3.58-13.84s-6.52,5.09-7.06,12.06,2.12,10.93,5.48,11.23S417.84,769.61,418.42,762.64Z"/><path class="cls-4" d="M419.08,762.43c-5.8,1.46-10.79,3.94-9.84,7s6.42,4.28,12.21,2.82,8-4.89,7.06-7.89S424.89,761,419.08,762.43Z"/><path class="cls-4" d="M396.69,727.69c1.41,16.15,7.56,1.33,15.29-2.85s13-6,12.06-9C422.06,709.53,396.26,722.84,396.69,727.69Z"/><path class="cls-3" d="M424.14,699c181.46-127.55,75.19-231.52-15.68-256.85L386.26,371c136.73,42.21,286,210.7,72.19,366.21Z"/><path class="cls-3" d="M331.11,360.93l51.22,9.19a42.88,42.88,0,0,1,35.11,46.3L397.85,620.49l6.58,188.7a22.59,22.59,0,0,1-28.87,22.51l-80.78-23.45A22.59,22.59,0,0,1,280,794.78l-11.83-30.23c-1.15-3,11.47-292.45,11.47-292.45"/><rect class="cls-5" x="326.62" y="512.19" width="62.61" height="14.14" rx="1.31" ry="1.31"/><circle class="cls-5" cx="357.92" cy="526.33" r="10.27"/><circle class="cls-5" cx="310.88" cy="560.33" r="8.25"/><circle class="cls-5" cx="308.02" cy="641.11" r="8.25"/><path class="cls-3" d="M234.64,360.93l-51.22,9.19a42.88,42.88,0,0,0-35.11,46.3L167.9,620.49l-6.58,188.7a22.59,22.59,0,0,0,28.87,22.51L271,808.25a22.59,22.59,0,0,0,14.74-13.46l11.83-30.23c1.15-3-11.47-292.45-11.47-292.45"/><path class="cls-4" d="M92.49,699c23.17,4.93,96.91,18.49,71.5,55-10.34,14.86-27.86,9.18-34.92-6.87S92.49,699,92.49,699Z"/><path class="cls-4" d="M161.72,747.17c-.54-7,.22-13.53,3.58-13.84s6.52,5.09,7.06,12.06-2.12,10.92-5.48,11.23S162.29,754.15,161.72,747.17Z"/><path class="cls-4" d="M156,757c-.55-7,.22-13.53,3.57-13.84s6.51,5.1,7.07,12-2.14,10.94-5.49,11.25S156.59,764,156,757Z"/><path class="cls-4" d="M147.33,762.64c-.54-7,.22-13.53,3.58-13.84s6.52,5.09,7.06,12.06-2.12,10.93-5.48,11.23S147.9,769.61,147.33,762.64Z"/><path class="cls-4" d="M146.66,762.43c5.8,1.46,10.79,3.94,9.84,7s-6.42,4.28-12.21,2.82-8-4.89-7.06-7.89S140.85,761,146.66,762.43Z"/><path class="cls-4" d="M169.05,727.69c-1.41,16.15-7.56,1.33-15.29-2.85s-13-6-12.06-9C143.68,709.53,169.48,722.84,169.05,727.69Z"/><path class="cls-3" d="M141.6,699C-39.86,571.43,66.41,467.46,157.28,442.13L179.49,371c-136.73,42.21-286,210.7-72.19,366.21Z"/><circle class="cls-5" cx="255.42" cy="560.33" r="8.25"/><circle class="cls-5" cx="258.28" cy="641.11" r="8.25"/><ellipse class="cls-6" cx="279.99" cy="193.13" rx="103.39" ry="135.54"/><ellipse class="cls-3" cx="278.63" cy="74.2" rx="131.03" ry="66.87"/><path class="cls-4" d="M195.1,232.16c-2.67-13.23-9.57-23-15.45-21.82s-8.46,12.87-5.81,26.09,9.57,23,15.43,21.82S197.75,245.4,195.1,232.16Z"/><path class="cls-4" d="M362.33,233.36c2.67-13.23,9.57-23,15.45-21.82s8.46,12.87,5.81,26.09-9.57,23-15.43,21.82S359.68,246.59,362.33,233.36Z"/><ellipse class="cls-4" cx="279.99" cy="220.06" rx="92.89" ry="119.22"/><path class="cls-6" d="M325.35,176.37l-18.63-4.19a7.1,7.1,0,0,0-8.49,5.36h0a7.1,7.1,0,0,0,5.36,8.49h0l18.63,4.19a7.1,7.1,0,0,0,8.49-5.36h0A7.1,7.1,0,0,0,325.35,176.37Z"/><path class="cls-6" d="M249,172.72l-18.87,2.94a7.1,7.1,0,0,0-5.93,8.1h0a7.1,7.1,0,0,0,8.1,5.93h0l18.87-2.94a7.1,7.1,0,0,0,5.92-8.11h0A7.1,7.1,0,0,0,249,172.72Z"/><path class="cls-3" d="M245.21,209c.26-6.35-2.27-11.61-5.65-11.74s-6.32,4.9-6.58,11.25,2.28,11.61,5.66,11.74S244.95,215.4,245.21,209Z"/><path class="cls-3" d="M321,209.05c.25-6.35-2.27-11.61-5.65-11.74s-6.33,4.9-6.59,11.25,2.28,11.6,5.66,11.74S320.76,215.4,321,209.05Z"/><path class="cls-7" d="M287.92,237.17a9.6,9.6,0,0,1-19.19.62q0-.31,0-.62h0c0-5.3,4.3,3.62,9.59,3.62S287.92,231.88,287.92,237.17Z"/><path class="cls-8" d="M330.9,258.35a52.27,52.27,0,0,1-104.54,0Z"/><path class="cls-3" d="M377.33,129.15c-41.79,37-117.63,65.24-194.68-.17C252.74,129,300.83,129.15,377.33,129.15Z"/><polygon class="cls-2" points="320.76 398.62 320.97 351.5 280 375 320.76 398.62"/><polygon class="cls-2" points="240.88 351.5 240.67 398.62 281.64 375.13 240.88 351.5"/><path class="cls-9" d="M316.67,335.27c19.2,1.11,41.37,47.73,46.19,58.37a2.43,2.43,0,0,1-1.18,3.19l-37.5,18.39a2.46,2.46,0,0,0-1,3.53L342,448.34a2.46,2.46,0,0,1-.09,2.77l-51.39,80.37c-1.42,2-5.77.47-5.69-1.94,0,0-1.48-64.52-1.46-64.63.6-3.45,12.54-71.49,31-127.92A2.39,2.39,0,0,1,316.67,335.27Z"/><path class="cls-5" d="M301.28,55.68H259c-3.52,0-6.75-.69-8.41-1.8l-11.36-7.6c-3.37-2.25.36-4.28,4.82-3.82h65c11.16,0,15.36,1.57,12,3.82l-11.37,7.6C308,55,304.8,55.68,301.28,55.68Z"/><path class="cls-9" d="M185.79,131.91a4.67,4.67,0,0,1-4.61-3.79c-1.2-6.35-3-18.7.79-21.39C226.36,75.09,330.9,79,378.45,103.79c4.83,2.52,1.16,17.92-.79,24.87a4.67,4.67,0,0,1-4.52,3.4Z"/><path class="cls-9" d="M238.88,335.27c-19.2,1.11-41.37,47.73-46.19,58.37a2.43,2.43,0,0,0,1.18,3.19l37.5,18.39a2.46,2.46,0,0,1,1,3.53l-18.8,29.59a2.46,2.46,0,0,0,.09,2.77l70.76,79.48c1.42,2,4.25,2.57,4.17.17,0,0-5.2-65.74-5.22-65.86-.6-3.45-23.71-71.49-42.15-127.92A2.39,2.39,0,0,0,238.88,335.27Z"/><circle class="cls-5" cx="279.99" cy="49.04" r="15.4"/></svg>