<svg id="Слой_1" data-name="Слой 1" xmlns="http://www.w3.org/2000/svg" viewBox="0 0 511 511"><defs><style>.cls-1{fill:#ffcf47;}.cls-2{fill:#ff960a;}.cls-3{fill:#ff1d0b;}</style></defs><title>pizza</title><path class="cls-1" d="M134.06,388.15v53.54a19.15,19.15,0,0,0,38.29,0V308.29l46.09,31.41v64.48a19.15,19.15,0,0,0,38.29,0V365.79l97.71,66.58V481.6a19.15,19.15,0,1,0,38.29,0h0V458.47l62.51,42.59V40C310,40,150,129.64,73.88,241.17l60.19,41.06V388.15Z"/><path class="cls-2" d="M455.25,78.28V30a20,20,0,0,0-20-20l-.9,0A492.31,492.31,0,0,0,60.88,207a20,20,0,0,0,4,28l.77.55L105.84,263C182,151.47,310,78.28,455.25,78.28Z"/><path class="cls-3" d="M272.51,227.15a44.28,44.28,0,1,0-23.18,58.17h0A44.28,44.28,0,0,0,272.51,227.15Z"/><path class="cls-3" d="M420.35,247.6a44.28,44.28,0,1,0-23.17,58.18,44.28,44.28,0,0,0,23.17-58.18Z"/><path class="cls-3" d="M445.39,349.93a44.27,44.27,0,0,0,9.86,84.28V347A44.31,44.31,0,0,0,445.39,349.93Z"/><path class="cls-3" d="M364.37,374.78a44.28,44.28,0,0,0-83.76,7.28L349,428.64A44.29,44.29,0,0,0,364.37,374.78Z"/><path class="cls-3" d="M385.66,84a419.84,419.84,0,0,0-69.47,17.7A44.28,44.28,0,1,0,385.66,84Z"/></svg>