<svg id="Capa_1" data-name="Capa 1" xmlns="http://www.w3.org/2000/svg" viewBox="0 0 200 200"><defs><style>.cls-1{fill:#fff;}</style></defs><title>restart</title><path class="cls-1" d="M22.56,33.06a99.33,99.33,0,0,0-10.81,14c-5.87,9.21,1,21.33,11.89,21.33h0a12.93,12.93,0,0,0,11.09-5.94C43.2,48.67,56.58,37,77.15,31.82c21.75-5.53,45.65-1.43,63.09,12.69A71.62,71.62,0,1,1,44.75,151h0c-.08-.07,16.17-17,16.17-17l-47.65.09a4.81,4.81,0,0,0-4.8,4.81L8.4,186.54s16.51-16.47,16.53-16.47h0a99.14,99.14,0,1,0,139-141.37C125.59-8.07,58.61-6,22.56,33.06Z"/></svg>