<svg id="Capa_1" data-name="Capa 1" xmlns="http://www.w3.org/2000/svg" viewBox="0 0 326.28 141"><defs><style>.cls-1{fill:#ff1d0b;}</style></defs><title>ribbon</title><path class="cls-1" d="M189.21,17.39C161.07-9.32,23.48,34.76,2.65,41.65a1.61,1.61,0,0,0-.56,2.74L20.16,60.5a1.62,1.62,0,0,1,.27,2.1L3.06,88.75a1.61,1.61,0,0,0,2,2.38c16-6.8,68.19-27.3,131.43-33.54,5.68-.56,10.85-.87,15.57-1a10.65,10.65,0,0,0,5.12-1.45A110.07,110.07,0,0,0,189.92,26,6.57,6.57,0,0,0,189.21,17.39Z"/><path class="cls-1" d="M138.07,89.27l.84,26.26a2.07,2.07,0,0,0,.31,1C159,151,303.75,108.34,321.4,103.63a2.53,2.53,0,0,0,1.08-4.36l-10.5-9a2.52,2.52,0,0,1-.51-3.21l11.39-18.83A2.52,2.52,0,0,0,320,64.48C297.86,71.2,178.31,110,140.67,87.72A1.72,1.72,0,0,0,138.07,89.27Z"/><path class="cls-1" d="M148.24,74.47a7,7,0,0,0,.55,8.69l0,0c4.22,4.3,12.8,8,29.93,6.6.85-.07,1.67-.12,2.55-.22s2-.23,3.07-.37a5.71,5.71,0,0,0,4.15-3c2.39-4.26,3.54-35.71,3.91-48.1,0-1.67-1.68-2.6-2.77-1.48C180.08,46.51,150.39,71.35,148.24,74.47Z"/></svg>