<svg id="Layer_1" data-name="Layer 1" xmlns="http://www.w3.org/2000/svg" viewBox="0 0 511.99 226"><defs><style>.cls-1{fill:#fff;}</style></defs><title>ship</title><path class="cls-1" d="M503.47,114H8.53a8.53,8.53,0,0,0-6.9,13.55L69.9,221.42a8.5,8.5,0,0,0,6.89,3.52H460.86a8.29,8.29,0,0,0,3.7-.87C506.33,203.2,512,161.08,512,122.6a8.56,8.56,0,0,0-8.52-8.6ZM110.93,143.86a4.27,4.27,0,0,1-4.27,4.27H98.13a4.27,4.27,0,0,1-4.27-4.27h0v-8.53a4.27,4.27,0,0,1,4.27-4.27h8.53a4.27,4.27,0,0,1,4.27,4.27h0Zm34.13,0a4.27,4.27,0,0,1-4.27,4.27h-8.53a4.27,4.27,0,0,1-4.27-4.27h0v-8.53a4.27,4.27,0,0,1,4.27-4.27h8.53a4.27,4.27,0,0,1,4.27,4.27h0Zm34.13,0a4.27,4.27,0,0,1-4.27,4.27H166.4a4.27,4.27,0,0,1-4.27-4.27h0v-8.53a4.27,4.27,0,0,1,4.27-4.27h8.53a4.27,4.27,0,0,1,4.27,4.27h0Zm34.13,0a4.27,4.27,0,0,1-4.27,4.27h-8.53a4.27,4.27,0,0,1-4.27-4.27h0v-8.53a4.27,4.27,0,0,1,4.27-4.27h8.53a4.27,4.27,0,0,1,4.27,4.27h0Zm34.13,0a4.27,4.27,0,0,1-4.27,4.27h-8.53a4.27,4.27,0,0,1-4.27-4.27h0v-8.53a4.27,4.27,0,0,1,4.27-4.27h8.53a4.27,4.27,0,0,1,4.27,4.27h0Zm34.13,0a4.27,4.27,0,0,1-4.27,4.27H268.8a4.27,4.27,0,0,1-4.27-4.27v-8.53a4.27,4.27,0,0,1,4.27-4.27h8.53a4.27,4.27,0,0,1,4.27,4.27v8.53Zm34.13,0a4.27,4.27,0,0,1-4.27,4.27h-8.53a4.27,4.27,0,0,1-4.27-4.27v-8.53a4.27,4.27,0,0,1,4.27-4.27h8.53a4.27,4.27,0,0,1,4.27,4.27Zm34.13,0a4.27,4.27,0,0,1-4.27,4.27H337a4.27,4.27,0,0,1-4.27-4.27v-8.53a4.27,4.27,0,0,1,4.27-4.27h8.53a4.27,4.27,0,0,1,4.27,4.27Zm34.13,0a4.27,4.27,0,0,1-4.27,4.27h-8.5a4.27,4.27,0,0,1-4.27-4.27v-8.53a4.27,4.27,0,0,1,4.27-4.27h8.53a4.27,4.27,0,0,1,4.27,4.27Zm34.13,0a4.27,4.27,0,0,1-4.27,4.27H405.3a4.27,4.27,0,0,1-4.27-4.27v-8.53a4.27,4.27,0,0,1,4.27-4.27h8.53a4.27,4.27,0,0,1,4.27,4.27Zm34.13,0a4.27,4.27,0,0,1-4.27,4.27h-8.53a4.27,4.27,0,0,1-4.27-4.27v-8.53a4.27,4.27,0,0,1,4.27-4.27H448a4.27,4.27,0,0,1,4.27,4.27Z"/><path class="cls-1" d="M439.45,71.26,433.86,49.7c-1.27-4.93-4.43-8.18-8-8.17H392.53v-32c0-3.54-1.91-6.42-4.27-6.42h-8.53c-2.36,0-4.27,2.87-4.27,6.42v32H332.8v-32c0-3.54-1.91-6.42-4.27-6.42H320c-2.36,0-4.27,2.87-4.27,6.42v32H273.07v-32c0-3.54-1.91-6.42-4.27-6.42h-8.53c-2.36,0-4.27,2.87-4.27,6.42h0v32H220.6c-3.54,0-6.72,3.22-8,8.17L207,71.26c-.85,3.31.25,7,2.45,8.31A3.06,3.06,0,0,0,211,80H435.47c2.35,0,4.27-2.84,4.28-6.38A9.3,9.3,0,0,0,439.45,71.26Z"/><path class="cls-1" d="M475.84,110l-5.06-27.62c-1.2-6.58-4.4-11-8-11H131.33c-3.6,0-6.8,4.44-8,11l-5.05,27.6c-.8,4.3.35,9,2.57,10.57a2.51,2.51,0,0,0,1.43.49H471.82c2.35,0,4.26-3.69,4.27-8.25A15.44,15.44,0,0,0,475.84,110Z"/></svg>