<svg id="Capa_1" data-name="Capa 1" xmlns="http://www.w3.org/2000/svg" viewBox="0 0 512 512"><defs><style>.cls-1{fill:#ffcf47;}.cls-2{fill:#fff;}</style></defs><title>shirt</title><path class="cls-1" d="M117.83,252H53.22a17,17,0,0,1-16.59-20.46L69.76,74.95A17,17,0,0,1,97.4,65.6h0a17,17,0,0,1,5.52,9.27L134.4,220.14a17,17,0,0,1,.38,3.59V235A17,17,0,0,1,117.83,252Z"/><path class="cls-1" d="M460.88,252.07H397.52a17,17,0,0,1-17-17V223.36a17,17,0,0,1,.22-2.73l23.64-145A17,17,0,0,1,410,65.58h0a17,17,0,0,1,27.57,8.65l39.72,156.7A17,17,0,0,1,460.88,252.07Z"/><path class="cls-2" d="M384,512H136.84a31.24,31.24,0,0,1-31.24-31.22l-.16-264.41a31.24,31.24,0,0,0-1.57-9.77L67.38,96A31.24,31.24,0,0,1,88.44,56.21l84.56-22c9.4-2.69-10.19,5.49-2.37,11.36l66.68,50a31.24,31.24,0,0,0,37.5,0L341,45.9c8.09-6.07-4.33-14.11,5.3-11l73,22.22a31.24,31.24,0,0,1,21.06,36.25l-24.3,114.37a31.24,31.24,0,0,0-.68,6.47l-.17,266.6A31.24,31.24,0,0,1,384,512Z"/><path class="cls-1" d="M165.27,43.89l26.78,86.74a13.34,13.34,0,0,0,19.44,7.6l37.86-22a13.34,13.34,0,0,0,4.93-18.09L207.61,15.35a13.34,13.34,0,0,0-21.08-2.86l-18,18.06A13.34,13.34,0,0,0,165.27,43.89Z"/><path class="cls-1" d="M346.74,43.89l-26.79,86.75a13.34,13.34,0,0,1-19.43,7.6l-37.87-22a13.34,13.34,0,0,1-4.93-18.08l46.68-82.85a13.34,13.34,0,0,1,21.07-2.86l18,18.06A13.34,13.34,0,0,1,346.74,43.89Z"/></svg>