<svg id="Слой_1" data-name="Слой 1" xmlns="http://www.w3.org/2000/svg" viewBox="0 0 364 518"><defs><style>.cls-1{fill:none;stroke:#000;stroke-linecap:round;stroke-linejoin:round;stroke-width:2px;}.cls-2{fill:#fff;}.cls-3{fill:#ff1d0b;}</style></defs><title>sock</title><g id="_091---Socks" data-name="091---Socks"><path id="Shape" class="cls-1" d="M242,81.93v-.09"/><path id="Shape-2" data-name="Shape" class="cls-2" d="M245,6,111.08,45.57A8.68,8.68,0,0,0,105,56.25l60.75,227.54a8.68,8.68,0,0,1-2.17,8.68L71.77,387.83a71.51,71.51,0,0,0-3,95.46A72.37,72.37,0,0,0,172.17,491l63.09-53.8q29.68-25.17,61.53-47.47a96.93,96.93,0,0,0,38-106L256,12.42A8.68,8.68,0,0,0,245,6Z"/><path id="Shape-3" data-name="Shape" class="cls-3" d="M283.68,107.88,130.52,151.44l-9.37-35.15L273.62,72.91Z"/><path id="Shape-4" data-name="Shape" class="cls-3" d="M338.44,310.25a97,97,0,0,1-41.65,79.66c-6,4.17-12,8.68-17.88,12.84a107.52,107.52,0,0,1-22.48-51.63c-4.86-46.43,29.33-81.92,68.64-100.58C333.15,278.4,338.44,291.51,338.44,310.25Z"/><path id="Shape-5" data-name="Shape" class="cls-3" d="M173.56,489.88l-1.56,1.3A72,72,0,0,1,71.77,387.83l3.82-4a243.85,243.85,0,0,1,98,106Z"/></g></svg>