<svg id="Capa_1" data-name="Capa 1" xmlns="http://www.w3.org/2000/svg" viewBox="0 0 512 512"><defs><style>.cls-1{fill:#ff960a;}.cls-2{fill:#2e2b2b;}.cls-3{fill:#ffcf47;}.cls-4{fill:#fff;}.cls-5{fill:none;stroke:#fff;stroke-miterlimit:10;stroke-width:8px;}</style></defs><title>suitcase</title><path class="cls-1" d="M490.67,462.16H21.33A21.34,21.34,0,0,1,0,440.83V128.71a21.34,21.34,0,0,1,21.33-21.33H490.67A21.33,21.33,0,0,1,512,128.71V440.83a21.33,21.33,0,0,1-21.33,21.33"/><path class="cls-2" d="M358.67,81.18v26.24h-32V81.18A16.68,16.68,0,0,0,310,64.54H202.07a16.74,16.74,0,0,0-16.74,16.64v26.24h-32V81.18a48.77,48.77,0,0,1,48.74-48.64H310a48.78,48.78,0,0,1,48.65,48.64"/><path class="cls-2" d="M94.21,479.46H38.73a10.67,10.67,0,0,1-10.67-10.67v-6.64h76.81v6.64a10.66,10.66,0,0,1-10.67,10.67"/><path class="cls-2" d="M473.27,479.46H417.79a10.68,10.68,0,0,1-10.67-10.67v-6.64h76.81v6.64a10.66,10.66,0,0,1-10.67,10.67"/><rect class="cls-3" x="92.75" y="107.42" width="24.25" height="354.77"/><rect class="cls-3" x="394.99" y="107.42" width="24.24" height="354.77"/><path class="cls-4" d="M294,242,171,284.77a11.32,11.32,0,0,0-14.41-7l-18.65-53.88a11.36,11.36,0,0,0,7-14.43l123-42.73a11.34,11.34,0,0,0,14.42,7L301,227.6A11.34,11.34,0,0,0,294,242"/><rect class="cls-4" x="247.05" y="292.65" width="57.61" height="109.05" rx="12" ry="12" transform="translate(-129.75 526.39) rotate(-75.37)"/><path class="cls-3" d="M350,331.92a34,34,0,1,1-34-34,34,34,0,0,1,34,34"/><circle class="cls-5" cx="316.02" cy="331.92" r="20.8"/></svg>