<svg id="Layer_2" data-name="Layer 2" xmlns="http://www.w3.org/2000/svg" viewBox="0 0 512 512"><defs><style>.cls-1{fill:#ff1d0b;}.cls-2{fill:#42e95f;}.cls-3{fill:#fff;}</style></defs><title>tomato</title><path class="cls-1" d="M461.22,304.89c0,118.6-87.93,160.33-205.25,160.33S50.71,421.49,50.71,302.89,138.16,88.51,255.48,88.51,461.22,186.29,461.22,304.89Z"/><path class="cls-2" d="M277.25,75.51C264.9,74,286.49,45.34,311.08,39.16a11.39,11.39,0,0,0,8.71-11h0a16.3,16.3,0,0,0-24.26-14.23c-30.77,17.35-51.8,61.35-54.26,61.59C137,84.89,118.49,62.26,118.33,69.22c-.71,32.22,51.36,81.14,104.83,51.57a1.58,1.58,0,0,1,2.33,1.32,295.12,295.12,0,0,0,29.08,113.81,1.59,1.59,0,0,0,2.86,0,295.12,295.12,0,0,0,29-113.43c.06-1.22,1.62-2.17,2.43-1.25,26.17,29.65,104.58,30.39,122.8,32.82a1.58,1.58,0,0,0,1.46-2.55A204.36,204.36,0,0,0,277.25,75.51Z"/><path class="cls-3" d="M126.76,173.08c10-3,24.16,2.43,27.44,11.45,6.59,18.13-30.7,50.63-41.41,44.89C102.78,224.06,105.31,179.44,126.76,173.08Z"/></svg>