<svg id="Слой_1" data-name="Слой 1" xmlns="http://www.w3.org/2000/svg" viewBox="0 0 511 511"><defs><style>.cls-1{fill:#c6c6c6;}.cls-2{fill:#fff;}.cls-3{fill:#42e95f;}</style></defs><title>toothbrush</title><path class="cls-1" d="M235.84,124.92,179.62,167.5,89.75,48.87,146,6.29a8.23,8.23,0,0,1,11.52,1.59L237.43,113.4A8.22,8.22,0,0,1,235.84,124.92Z"/><path class="cls-2" d="M235.84,124.92,179.62,167.5l-22.46-29.66,62.77-47.55,17.5,23.1A8.22,8.22,0,0,1,235.84,124.92Z"/><path class="cls-2" d="M112.22,78.53,175,31l22.46,29.66-62.77,47.55Z"/><path class="cls-3" d="M245.79,199.12a22.19,22.19,0,0,0-9.66-8.64L195.4,173.41,91.95,36.84A22.29,22.29,0,1,0,56.42,63.75s94.11,123.87,105.47,138.87a22.18,22.18,0,0,0,10,9.21l40.73,17.07,207,273.27a22.29,22.29,0,1,0,35.53-26.91S246.31,199.68,245.79,199.12Z"/></svg>