<svg id="Layer_1" data-name="Layer 1" xmlns="http://www.w3.org/2000/svg" viewBox="0 0 512 415.28"><defs><style>.cls-1{fill:#fff;}</style></defs><title>train</title><path class="cls-1" d="M477.87,338.48H192a21.33,21.33,0,0,1-21.33-21.33V231.81a21.33,21.33,0,0,0-21.33-21.33H72.53A21.33,21.33,0,0,0,51.2,231.81v12.8a8.53,8.53,0,0,0,6.46,8.28l18,4.5a12.8,12.8,0,0,1,9.69,12.42v55.88a12.8,12.8,0,0,1-12.8,12.8H55.47a21.33,21.33,0,0,0-21.33,21.33h0a21.33,21.33,0,0,0,21.33,21.33H74.31a12.66,12.66,0,0,1,12.26,9.13,34.14,34.14,0,0,0,65.79,0,12.66,12.66,0,0,1,12.26-9.13h3.56a12.66,12.66,0,0,1,12.26,9.13,34.14,34.14,0,0,0,65.79,0,12.66,12.66,0,0,1,12.26-9.13H262a12.66,12.66,0,0,1,12.26,9.13,34.14,34.14,0,0,0,65.79,0,12.66,12.66,0,0,1,12.26-9.13h3.56a12.66,12.66,0,0,1,12.26,9.13,34.14,34.14,0,0,0,65.79,0,12.66,12.66,0,0,1,12.26-9.13h18.85a21.33,21.33,0,0,0,21.33-21.33V347A8.53,8.53,0,0,0,477.87,338.48Z"/><path class="cls-1" d="M452.27,236.08H416.5a6.9,6.9,0,0,1-6.9-6.9V219a25.43,25.43,0,0,0-12.55-21.9,7.21,7.21,0,0,1-3.49-7.18h0a29.86,29.86,0,0,0-5.85-22.29,6.79,6.79,0,0,1-1.27-5.49c1.68-8.16.89-17.71-4.49-25.47a27.37,27.37,0,0,0-15.83-10.78,6.91,6.91,0,0,1-5.23-6.41A42.05,42.05,0,0,0,345.53,88.4a51.39,51.39,0,0,0-44.31-10.82,7,7,0,0,1-7.3-2.93,21.45,21.45,0,0,0-4.65-5,22.94,22.94,0,0,0-8-4,6.8,6.8,0,0,1-4.88-6.91,50,50,0,0,0-9-31.14C257.3,13.22,240.71,5.1,221.87,5.68c-20.23,0-40.39,11-50.16,27.26a42.66,42.66,0,0,0-4.42,34.29A6.84,6.84,0,0,1,165.47,74c-17.43,16.64-19,37.87-11.82,53.13,7.28,15.59,25,28.28,49.63,25.72a6.76,6.76,0,0,1,6.3,2.92A43.32,43.32,0,0,0,226.19,170a50.13,50.13,0,0,0,31.57,4.46,6.91,6.91,0,0,1,7.66,4.47A32.37,32.37,0,0,0,273,190.59c14.54,14.41,41.4,16.68,63,12.73a7,7,0,0,1,5.09,1.09,43.19,43.19,0,0,0,12.2,5.45,6.91,6.91,0,0,1,5.11,7.23c-.06.63-.09,1.27-.09,1.92v10.17a6.9,6.9,0,0,1-6.9,6.9H317.76a6.81,6.81,0,0,1-5.65-3.12c-5.56-8.34-17-13.95-30.52-13.95s-25,5.61-30.52,13.95a6.81,6.81,0,0,1-5.65,3.12H209.33a21.59,21.59,0,0,0-21.59,21.59v46.82a16.92,16.92,0,0,0,16.92,16.92H452.27c14.59,0,25.6-18.34,25.6-42.67S466.86,236.08,452.27,236.08Z"/></svg>