<svg id="Capa_1" data-name="Capa 1" xmlns="http://www.w3.org/2000/svg" viewBox="0 0 574 470"><defs><style>.cls-1{fill:#42e95f;}.cls-2{fill:#ff1d0b;}.cls-3{fill:#2e2b2b;}</style></defs><title>watermelon_h</title><path class="cls-1" d="M8.38,301c-.76,2.82-1.17,4.37-1.85,7.2,84.64,141,267,188.53,410,106s193-264.25,113.19-408l-7.17-2Z"/><path class="cls-2" d="M46.66,278.85h0c69.76,120.83,224.27,162.23,345.11,92.47S554,147.05,484.24,26.22h0Z"/><path class="cls-3" d="M337.42,277.16a14.85,14.85,0,0,0,5.44-20.29h0c-1.49-2.58-13.79-18.34-24.25-12.31-3.15,1.82-6.58,6-5.11,15.65a36.66,36.66,0,0,0,3.65,11.51,14.85,14.85,0,0,0,20.28,5.44Z"/><path class="cls-3" d="M250.12,263.86c-12-1.41-17,17.91-17.38,20.93a14.85,14.85,0,0,0,26.89,10.31c3.86-5.47,3-12.73,1.38-18.84-2.48-9.43-7.31-11.91-10.91-12.33Z"/><path class="cls-3" d="M155.22,261.59l-.29.41a14.85,14.85,0,0,0,24.49,16.8,36.69,36.69,0,0,0,4.74-11.15c2.38-9.47-.65-14-3.6-16.07-9.84-7-23.62,7.49-25.31,9.94Z"/><path class="cls-3" d="M369.58,194.93c-4.81,11.14,12.24,21.48,15,22.66a14.85,14.85,0,1,0,11.79-27.27C393.64,189.15,374.38,183.8,369.58,194.93Z"/><path class="cls-3" d="M405.87,139.71a33.27,33.27,0,0,0,12,1.47,14.85,14.85,0,0,0-2.83-29.57h0a36.7,36.7,0,0,0-11.49,3.71c-8.71,4.41-10.12,9.64-9.76,13.25s2.73,8.48,12.12,11.16Z"/></svg>