<svg id="Capa_1" data-name="Capa 1" xmlns="http://www.w3.org/2000/svg" viewBox="0 0 574 470"><defs><style>.cls-1{fill:#42e95f;}.cls-2{fill:#ff1d0b;}.cls-3{fill:#2e2b2b;}</style></defs><title>watermelon</title><path class="cls-1" d="M51.63,4.12l-7.17,2c-79.78,143.8-29.76,325.52,113.19,408s325.33,35,410-106c-.68-2.83-1.09-4.38-1.85-7.2Z"/><path class="cls-2" d="M89.91,26.22h0C20.15,147.05,61.55,301.56,182.38,371.33s275.34,28.36,345.11-92.47h0Z"/><path class="cls-3" d="M248,278.64a14.76,14.76,0,0,0,9-6.92,36.66,36.66,0,0,0,3.65-11.51c1.46-9.65-2-13.83-5.11-15.65-10.46-6-22.76,9.72-24.25,12.31h0A14.85,14.85,0,0,0,248,278.64Z"/><path class="cls-3" d="M324,263.92c-3.6.43-8.43,2.9-10.91,12.33-1.61,6.12-2.47,13.38,1.38,18.84a14.85,14.85,0,0,0,26.89-10.31c-.35-3-5.33-22.33-17.38-20.93Z"/><path class="cls-3" d="M418.91,261.52c-1.69-2.45-15.47-17-25.31-9.94-3,2.11-6,6.6-3.6,16.07a36.69,36.69,0,0,0,4.74,11.15A14.85,14.85,0,0,0,419.22,262l-.29-.41Z"/><path class="cls-3" d="M177.76,190.33a14.85,14.85,0,0,0,11.79,27.27c2.79-1.18,19.83-11.53,15-22.66S180.51,189.15,177.76,190.33Z"/><path class="cls-3" d="M168.23,139.74c9.39-2.68,11.76-7.54,12.12-11.16s-1.06-8.85-9.76-13.25a36.7,36.7,0,0,0-11.49-3.71h0a14.85,14.85,0,0,0-2.83,29.57,33.27,33.27,0,0,0,12-1.47Z"/></svg>