<svg id="Capa_1" data-name="Capa 1" xmlns="http://www.w3.org/2000/svg" viewBox="0 0 512 512"><defs><style>.cls-1{fill:#2e2b2b;}.cls-2{fill:#fff;}</style></defs><title>weight</title><path class="cls-1" d="M443.27,229.5a216.94,216.94,0,0,0-59.43-67.12A104.89,104.89,0,0,0,296,0H216a104.89,104.89,0,0,0-87.84,162.38A216.94,216.94,0,0,0,68.73,229.5,214.55,214.55,0,0,0,65.4,434.37a217.45,217.45,0,0,0,64.83,74.77A15,15,0,0,0,139,512H373a15,15,0,0,0,8.81-2.86,217.46,217.46,0,0,0,64.83-74.77,214.55,214.55,0,0,0-3.33-204.86ZM296,135H216.59c-15.81,0-29.37-12-30.51-27.76a30,30,0,0,1,27.68-32.16Q214.88,75,216,75h79.41c15.81,0,29.37,12,30.51,27.76a30,30,0,0,1-27.68,32.16Q297.12,135,296,135Z"/><path class="cls-2" d="M251.2,349.15H232.6V373H213.7V349.15H156.1v-13.5L207.85,268H228.7L180,332.65h34.3V311.5h18.3v21.15h18.6Z"/><path class="cls-2" d="M341.72,327.92a25.54,25.54,0,0,1,4.42,14.92,27.49,27.49,0,0,1-5.33,16.8,33.3,33.3,0,0,1-15.07,11,68.75,68.75,0,0,1-45.23,0,32.82,32.82,0,0,1-14.92-11,27.74,27.74,0,0,1-5.25-16.8,25.83,25.83,0,0,1,4.35-14.92,29.77,29.77,0,0,1,12.45-10.12,24,24,0,0,1-13-22A25.29,25.29,0,0,1,269,280.3a31.13,31.13,0,0,1,13.72-10.2,60,60,0,0,1,41,0,31.68,31.68,0,0,1,13.8,10.2,25,25,0,0,1,5,15.45,23.93,23.93,0,0,1-3.45,12.9,26.62,26.62,0,0,1-9.9,9.15A30.19,30.19,0,0,1,341.72,327.92ZM320.2,354.7a15.3,15.3,0,0,0,0-24.75q-6.3-4.5-17.1-4.5t-17,4.5a15.53,15.53,0,0,0,0,24.75q6.15,4.5,17,4.5T320.2,354.7Zm-31.57-69a13.69,13.69,0,0,0,0,21.67q5.32,4,14.47,4t14.7-4a13.52,13.52,0,0,0-.08-21.67q-5.48-3.9-14.62-3.9t-14.48,3.9Z"/></svg>